<mxfile host="app.diagrams.net" modified="2023-11-03T04:28:49.754Z" agent="Mozilla/5.0 (Windows NT 10.0; Win64; x64) AppleWebKit/537.36 (KHTML, like Gecko) Chrome/118.0.0.0 Safari/537.36" etag="oDn1covscZ3ZamXuXdOZ" version="22.0.8" type="device">
  <diagram id="C5RBs43oDa-KdzZeNtuy" name="Page-1">
    <mxGraphModel dx="794" dy="456" grid="1" gridSize="10" guides="1" tooltips="1" connect="1" arrows="1" fold="1" page="1" pageScale="1" pageWidth="827" pageHeight="1169" math="0" shadow="0">
      <root>
        <mxCell id="WIyWlLk6GJQsqaUBKTNV-0" />
        <mxCell id="WIyWlLk6GJQsqaUBKTNV-1" parent="WIyWlLk6GJQsqaUBKTNV-0" />
        <mxCell id="lDcDvl0naSP_OTUjNgAg-2" value="" style="edgeStyle=orthogonalEdgeStyle;rounded=0;orthogonalLoop=1;jettySize=auto;html=1;fontStyle=1" edge="1" parent="WIyWlLk6GJQsqaUBKTNV-1" source="lDcDvl0naSP_OTUjNgAg-0" target="lDcDvl0naSP_OTUjNgAg-1">
          <mxGeometry relative="1" as="geometry" />
        </mxCell>
        <mxCell id="lDcDvl0naSP_OTUjNgAg-0" value="Mulai" style="rounded=1;whiteSpace=wrap;html=1;arcSize=41;fontStyle=1" vertex="1" parent="WIyWlLk6GJQsqaUBKTNV-1">
          <mxGeometry x="330" y="60" width="90" height="50" as="geometry" />
        </mxCell>
        <mxCell id="lDcDvl0naSP_OTUjNgAg-3" style="edgeStyle=orthogonalEdgeStyle;rounded=0;orthogonalLoop=1;jettySize=auto;html=1;fontStyle=1" edge="1" parent="WIyWlLk6GJQsqaUBKTNV-1" source="lDcDvl0naSP_OTUjNgAg-1" target="lDcDvl0naSP_OTUjNgAg-5">
          <mxGeometry relative="1" as="geometry">
            <mxPoint x="375" y="250" as="targetPoint" />
          </mxGeometry>
        </mxCell>
        <mxCell id="lDcDvl0naSP_OTUjNgAg-1" value="Masukan Alas" style="shape=parallelogram;perimeter=parallelogramPerimeter;whiteSpace=wrap;html=1;fixedSize=1;rounded=1;arcSize=0;fontStyle=1" vertex="1" parent="WIyWlLk6GJQsqaUBKTNV-1">
          <mxGeometry x="297" y="160" width="155" height="45" as="geometry" />
        </mxCell>
        <mxCell id="lDcDvl0naSP_OTUjNgAg-7" value="" style="edgeStyle=orthogonalEdgeStyle;rounded=0;orthogonalLoop=1;jettySize=auto;html=1;fontStyle=1" edge="1" parent="WIyWlLk6GJQsqaUBKTNV-1" source="lDcDvl0naSP_OTUjNgAg-5" target="lDcDvl0naSP_OTUjNgAg-6">
          <mxGeometry relative="1" as="geometry" />
        </mxCell>
        <mxCell id="lDcDvl0naSP_OTUjNgAg-5" value="Masukan Tinggi" style="shape=parallelogram;perimeter=parallelogramPerimeter;whiteSpace=wrap;html=1;fixedSize=1;fontStyle=1" vertex="1" parent="WIyWlLk6GJQsqaUBKTNV-1">
          <mxGeometry x="240.88" y="240" width="267.25" height="40" as="geometry" />
        </mxCell>
        <mxCell id="lDcDvl0naSP_OTUjNgAg-9" value="" style="edgeStyle=orthogonalEdgeStyle;rounded=0;orthogonalLoop=1;jettySize=auto;html=1;fontStyle=1" edge="1" parent="WIyWlLk6GJQsqaUBKTNV-1" source="lDcDvl0naSP_OTUjNgAg-6" target="lDcDvl0naSP_OTUjNgAg-8">
          <mxGeometry relative="1" as="geometry" />
        </mxCell>
        <mxCell id="lDcDvl0naSP_OTUjNgAg-6" value="Luas=1/2*(alas*tinggi)" style="whiteSpace=wrap;html=1;fontStyle=1" vertex="1" parent="WIyWlLk6GJQsqaUBKTNV-1">
          <mxGeometry x="269.76" y="330" width="208.24" height="40" as="geometry" />
        </mxCell>
        <mxCell id="lDcDvl0naSP_OTUjNgAg-11" value="" style="edgeStyle=orthogonalEdgeStyle;rounded=0;orthogonalLoop=1;jettySize=auto;html=1;fontStyle=1" edge="1" parent="WIyWlLk6GJQsqaUBKTNV-1" source="lDcDvl0naSP_OTUjNgAg-8" target="lDcDvl0naSP_OTUjNgAg-10">
          <mxGeometry relative="1" as="geometry" />
        </mxCell>
        <mxCell id="lDcDvl0naSP_OTUjNgAg-8" value="Tampil Luas Segitiga" style="shape=parallelogram;perimeter=parallelogramPerimeter;whiteSpace=wrap;html=1;fixedSize=1;fontStyle=1" vertex="1" parent="WIyWlLk6GJQsqaUBKTNV-1">
          <mxGeometry x="285.82" y="417" width="176.12" height="43" as="geometry" />
        </mxCell>
        <mxCell id="lDcDvl0naSP_OTUjNgAg-10" value="Selesai" style="rounded=1;whiteSpace=wrap;html=1;arcSize=38;fontStyle=1" vertex="1" parent="WIyWlLk6GJQsqaUBKTNV-1">
          <mxGeometry x="325.38" y="510" width="97" height="50" as="geometry" />
        </mxCell>
      </root>
    </mxGraphModel>
  </diagram>
</mxfile>
